name rise38.3101peak57.3503fall81.6963.mot
datacolumns 19
datarows 15
range 22.60492300000000 22.62825400000000
endheader
time	ground_force1_vx	ground_force1_vy	ground_force1_vz	ground_force1_px	ground_force1_py	ground_force1_pz	ground_force2_vx	ground_force2_vy	ground_force2_vz	ground_force2_px	ground_force2_py	ground_force2_pz	ground_torque1_x	ground_torque1_y	ground_torque1_z	ground_torque2_x	ground_torque2_y	ground_torque2_z	
22.60492300000000	63.87214300000000	841.70758899999998	60.62368200000000	0.34858400000000	0.00000000000000	0.11158300000000	0.00000000000000	0.00000000000000	0.00000000000000	0.00000000000000	0.00000000000000	0.00000000000000	0.00000000000000	27.26160500000000	0.00000000000000	0.00000000000000	0.00000000000000	0.00000000000000	
22.60658200000000	62.78016300000000	841.97258299999999	60.71850900000000	0.34752700000000	0.00000000000000	0.11160300000000	0.00000000000000	0.00000000000000	0.00000000000000	0.00000000000000	0.00000000000000	0.00000000000000	0.00000000000000	27.40057100000000	0.00000000000000	0.00000000000000	0.00000000000000	0.00000000000000	
22.60824800000000	61.68448900000000	842.01858800000002	60.80241800000000	0.34646200000000	0.00000000000000	0.11162500000000	0.00000000000000	0.00000000000000	0.00000000000000	0.00000000000000	0.00000000000000	0.00000000000000	0.00000000000000	27.53265700000000	0.00000000000000	0.00000000000000	0.00000000000000	0.00000000000000	
22.60992200000000	60.58600000000000	841.84864700000003	60.87494200000000	0.34538800000000	0.00000000000000	0.11164700000000	0.00000000000000	0.00000000000000	0.00000000000000	0.00000000000000	0.00000000000000	0.00000000000000	0.00000000000000	27.65740100000000	0.00000000000000	0.00000000000000	0.00000000000000	0.00000000000000	
22.61158600000000	59.48552200000000	841.46611299999995	60.93559600000000	0.34430500000000	0.00000000000000	0.11167100000000	0.00000000000000	0.00000000000000	0.00000000000000	0.00000000000000	0.00000000000000	0.00000000000000	0.00000000000000	27.77433300000000	0.00000000000000	0.00000000000000	0.00000000000000	0.00000000000000	
22.61325200000000	58.38382500000000	840.87465099999997	60.98387400000000	0.34321000000000	0.00000000000000	0.11169600000000	0.00000000000000	0.00000000000000	0.00000000000000	0.00000000000000	0.00000000000000	0.00000000000000	0.00000000000000	27.88297700000000	0.00000000000000	0.00000000000000	0.00000000000000	0.00000000000000	
22.61492100000000	57.28163400000000	840.07823099999996	61.01926400000000	0.34210400000000	0.00000000000000	0.11172200000000	0.00000000000000	0.00000000000000	0.00000000000000	0.00000000000000	0.00000000000000	0.00000000000000	0.00000000000000	27.98285700000000	0.00000000000000	0.00000000000000	0.00000000000000	0.00000000000000	
22.61658800000000	56.17962500000000	839.08112400000005	61.04124600000000	0.34098300000000	0.00000000000000	0.11175000000000	0.00000000000000	0.00000000000000	0.00000000000000	0.00000000000000	0.00000000000000	0.00000000000000	0.00000000000000	28.07350400000000	0.00000000000000	0.00000000000000	0.00000000000000	0.00000000000000	
22.61825400000000	55.07842700000000	837.88789399999996	61.04930400000000	0.33984800000000	0.00000000000000	0.11177900000000	0.00000000000000	0.00000000000000	0.00000000000000	0.00000000000000	0.00000000000000	0.00000000000000	0.00000000000000	28.15445500000000	0.00000000000000	0.00000000000000	0.00000000000000	0.00000000000000	
22.61992000000000	53.97863200000000	836.50339699999995	61.04293100000000	0.33869600000000	0.00000000000000	0.11181000000000	0.00000000000000	0.00000000000000	0.00000000000000	0.00000000000000	0.00000000000000	0.00000000000000	0.00000000000000	28.22526300000000	0.00000000000000	0.00000000000000	0.00000000000000	0.00000000000000	
22.62158800000000	52.88078700000000	834.93276600000002	61.02163400000000	0.33752700000000	0.00000000000000	0.11184300000000	0.00000000000000	0.00000000000000	0.00000000000000	0.00000000000000	0.00000000000000	0.00000000000000	0.00000000000000	28.28549800000000	0.00000000000000	0.00000000000000	0.00000000000000	0.00000000000000	
22.62326500000000	51.78540600000000	833.18140600000004	60.98494100000000	0.33633800000000	0.00000000000000	0.11187600000000	0.00000000000000	0.00000000000000	0.00000000000000	0.00000000000000	0.00000000000000	0.00000000000000	0.00000000000000	28.33475000000000	0.00000000000000	0.00000000000000	0.00000000000000	0.00000000000000	
22.62492500000000	50.69296900000000	831.25498600000003	60.93240600000000	0.33512900000000	0.00000000000000	0.11191200000000	0.00000000000000	0.00000000000000	0.00000000000000	0.00000000000000	0.00000000000000	0.00000000000000	0.00000000000000	28.37263600000000	0.00000000000000	0.00000000000000	0.00000000000000	0.00000000000000	
22.62659000000000	49.60392600000000	829.15942099999995	60.86361600000000	0.33389800000000	0.00000000000000	0.11194900000000	0.00000000000000	0.00000000000000	0.00000000000000	0.00000000000000	0.00000000000000	0.00000000000000	0.00000000000000	28.39880500000000	0.00000000000000	0.00000000000000	0.00000000000000	0.00000000000000	
22.62825400000000	48.51869700000000	826.90086899999994	60.77819500000000	0.33264400000000	0.00000000000000	0.11198700000000	0.00000000000000	0.00000000000000	0.00000000000000	0.00000000000000	0.00000000000000	0.00000000000000	0.00000000000000	28.41293400000000	0.00000000000000	0.00000000000000	0.00000000000000	0.00000000000000	
